<?xml version="1.0" encoding="UTF-8"?>
<svg width="80px" height="53px" viewBox="0 0 80 53" version="1.1" xmlns="http://www.w3.org/2000/svg" xmlns:xlink="http://www.w3.org/1999/xlink">
    <!-- Generator: Sketch 54.1 (76490) - https://sketchapp.com -->
    <title>logo</title>
    <desc>Created with Sketch.</desc>
    <g id="Page-1" stroke="none" stroke-width="1" fill="none" fill-rule="evenodd">
        <g id="Artboard" fill-rule="nonzero">
            <path d="M21.32,3.64 C21.32,3.0533304 21.353333,2.5866684 21.42,2.24 C21.486667,1.8933316 21.5999992,1.6266676 21.76,1.44 C21.9200008,1.2533324 22.1399986,1.126667 22.42,1.06 C22.7000014,0.993333 23.0666644,0.96 23.52,0.96 C24.3733376,0.96 24.9799982,1.159998 25.34,1.56 C25.7000018,1.960002 25.88,2.6533284 25.88,3.64 C25.88,5.0000068 25.9199996,6.4266592 26,7.92 C26.0800004,9.4133408 26.2133324,10.9333256 26.4,12.48 L32.76,12.48 L32.36,12.08 C32.226666,11.946666 32.093334,11.7866676 31.96,11.6 C31.3733304,10.9066632 30.7533366,10.22667 30.1,9.56 C29.4466634,8.89333 28.6800044,8.1333376 27.8,7.28 C27.1066632,6.5866632 26.7066672,5.973336 26.6,5.44 C26.4933328,4.906664 26.706664,4.3333364 27.24,3.72 C27.773336,3.1066636 28.306664,2.7933334 28.84,2.78 C29.373336,2.7666666 29.9866632,3.0666636 30.68,3.68 C31.5333376,4.4000036 32.4199954,5.226662 33.34,6.16 C34.2600046,7.093338 35.05333,7.959996 35.72,8.76 C36.38667,9.5333372 36.7066668,10.1933306 36.68,10.74 C36.6533332,11.2866694 36.2933368,11.8666636 35.6,12.48 L37.2,12.48 C38.0800044,12.48 38.6599986,12.679998 38.94,13.08 C39.2200014,13.480002 39.36,14.0399964 39.36,14.76 C39.36,15.560004 39.2200014,16.1466648 38.94,16.52 C38.6599986,16.8933352 38.0800044,17.08 37.2,17.08 L34.92,17.08 C35.0266672,17.5333356 34.9333348,18.226662 34.64,19.16 C33.5199944,22.4133496 32.0533424,25.2933208 30.24,27.8 C31.1466712,29.7733432 32.1466612,31.493326 33.24,32.96 C33.4533344,33.2533348 33.593333,33.3866668 33.66,33.36 C33.726667,33.3333332 33.7999996,33.1733348 33.88,32.88 C34.013334,32.4266644 34.1199996,31.900003 34.2,31.3 C34.2800004,30.699997 34.3466664,30.1733356 34.4,29.72 C34.4800004,28.7599952 34.7399978,28.1266682 35.18,27.82 C35.6200022,27.5133318 36.2266628,27.3866664 37,27.44 C37.8266708,27.4933336 38.373332,27.7066648 38.64,28.08 C38.906668,28.4533352 39.0133336,28.9866632 38.96,29.68 C38.826666,31.546676 38.6066682,33.0999938 38.3,34.34 C37.9933318,35.5800062 37.5466696,36.7199948 36.96,37.76 C36.6666652,38.293336 36.2933356,38.6999986 35.84,38.98 C35.3866644,39.2600014 34.9066692,39.4199998 34.4,39.46 C33.8933308,39.5000002 33.3866692,39.4266676 32.88,39.24 C32.3733308,39.0533324 31.920002,38.7466688 31.52,38.32 C30.6666624,37.4133288 29.8466706,36.4200054 29.06,35.34 C28.2733294,34.2599946 27.5333368,33.0400068 26.84,31.68 C25.8533284,32.5866712 24.7800058,33.4466626 23.62,34.26 C22.4599942,35.0733374 21.2000068,35.8533296 19.84,36.6 C18.8266616,37.1600028 18.0600026,37.3800006 17.54,37.26 C17.0199974,37.1399994 16.6000016,36.7733364 16.28,36.16 C15.879998,35.3866628 15.7666658,34.6933364 15.94,34.08 C16.1133342,33.4666636 16.6266624,32.9333356 17.48,32.48 C19.080008,31.679996 20.479994,30.8533376 21.68,30 C22.880006,29.1466624 23.946662,28.2133384 24.88,27.2 C24.2399968,25.4399912 23.7066688,23.7333416 23.28,22.08 C22.8533312,20.4266584 22.506668,18.7600084 22.24,17.08 L15.24,17.08 L15.24,21.72 C15.9866704,21.4799988 16.7399962,21.2400012 17.5,21 C18.2600038,20.7599988 19.039996,20.506668 19.84,20.24 C20.6133372,19.973332 21.2066646,19.9999984 21.62,20.32 C22.0333354,20.6400016 22.3466656,21.1466632 22.56,21.84 C22.7733344,22.5333368 22.7600012,23.0933312 22.52,23.52 C22.2799988,23.9466688 21.7866704,24.293332 21.04,24.56 C20.0266616,24.9066684 19.0400048,25.2333318 18.08,25.54 C17.1199952,25.8466682 16.173338,26.1466652 15.24,26.44 L15.24,33.96 C15.24,35.6666752 14.7666714,36.986662 13.82,37.92 C12.8733286,38.853338 11.5466752,39.32 9.84,39.32 C9.0666628,39.32 8.2066714,39.2000012 7.26,38.96 C6.3133286,38.7199988 5.2800056,38.333336 4.16,37.8 L4.2,37.84 C3.399996,37.4933316 2.900001,37.0066698 2.7,36.38 C2.499999,35.7533302 2.5599984,35.1200032 2.88,34.48 C3.2533352,33.81333 3.6999974,33.4000008 4.22,33.24 C4.7400026,33.0799992 5.4266624,33.1866648 6.28,33.56 C7.880008,34.2533368 9.0933292,34.6 9.92,34.6 C10.3466688,34.6 10.56,34.333336 10.56,33.8 L10.56,27.76 C9.5733284,28.0000012 8.6000048,28.2333322 7.64,28.46 C6.6799952,28.6866678 5.6933384,28.9066656 4.68,29.12 C3.8266624,29.3066676 3.1800022,29.300001 2.74,29.1 C2.2999978,28.899999 1.9733344,28.4266704 1.76,27.68 C1.5466656,26.9066628 1.573332,26.2600026 1.84,25.74 C2.106668,25.2199974 2.7466616,24.8533344 3.76,24.64 C4.9866728,24.373332 6.1466612,24.1133346 7.24,23.86 C8.3333388,23.6066654 9.4399944,23.3333348 10.56,23.04 L10.56,17.08 L2.84,17.08 C1.9599956,17.08 1.3800014,16.8933352 1.1,16.52 C0.8199986,16.1466648 0.68,15.560004 0.68,14.76 C0.68,14.0399964 0.8199986,13.480002 1.1,13.08 C1.3800014,12.679998 1.9599956,12.48 2.84,12.48 L10.56,12.48 L10.56,9 C9.8666632,9.133334 9.120004,9.2599994 8.32,9.38 C7.519996,9.5000006 6.6400048,9.6133328 5.68,9.72 C4.746662,9.8266672 4.046669,9.7533346 3.58,9.5 C3.113331,9.2466654 2.8400004,8.6800044 2.76,7.8 C2.6799996,6.866662 2.839998,6.200002 3.24,5.8 C3.640002,5.399998 4.3333284,5.133334 5.32,5 C6.7333404,4.8399992 7.9599948,4.6733342 9,4.5 C10.0400052,4.3266658 10.993329,4.1266678 11.86,3.9 C12.726671,3.6733322 13.559996,3.4133348 14.36,3.12 C15.160004,2.8266652 16.026662,2.480002 16.96,2.08 C17.8666712,1.679998 18.5999972,1.5866656 19.16,1.8 C19.7200028,2.0133344 20.1466652,2.4799964 20.44,3.2 C20.7333348,3.9733372 20.7733344,4.6066642 20.56,5.1 C20.3466656,5.5933358 19.773338,6.0266648 18.84,6.4 C18.1466632,6.6933348 17.5066696,6.939999 16.92,7.14 C16.3333304,7.340001 15.773336,7.5466656 15.24,7.76 L15.24,12.48 L21.64,12.48 C21.506666,11.0399928 21.4200002,9.586674 21.38,8.12 C21.3399998,6.653326 21.32,5.1600076 21.32,3.64 Z M30.28,17.64 C30.3333336,17.4533324 30.4133328,17.2666676 30.52,17.08 L27.08,17.08 C27.2666676,18.013338 27.4533324,18.9199956 27.64,19.8 C27.8266676,20.6800044 28.0399988,21.5466624 28.28,22.4 C28.6533352,21.6799964 29.006665,20.9266706 29.34,20.14 C29.673335,19.3533294 29.9866652,18.5200044 30.28,17.64 Z M61.28,15.04 C60.4533292,16.2133392 59.5866712,16.7066676 58.68,16.52 L58.68,32.32 C58.68,33.8400076 58.3666698,34.9266634 57.74,35.58 C57.1133302,36.2333366 56.0400076,36.56 54.52,36.56 L46.48,36.56 C44.9599924,36.56 43.8933364,36.2333366 43.28,35.58 C42.6666636,34.9266634 42.36,33.8400076 42.36,32.32 L42.36,10.04 C42.36,8.573326 42.6666636,7.4933368 43.28,6.8 C43.8933364,6.1066632 44.9599924,5.76 46.48,5.76 L48.32,5.76 C48.4000004,5.4133316 48.473333,5.0666684 48.54,4.72 C48.606667,4.3733316 48.6666664,4.000002 48.72,3.6 C48.853334,2.5866616 49.1733308,1.8733354 49.68,1.46 C50.1866692,1.0466646 50.8266628,0.8933328 51.6,1 C52.533338,1.133334 53.1199988,1.4533308 53.36,1.96 C53.6000012,2.4666692 53.653334,3.253328 53.52,4.32 L53.2,5.76 L54.52,5.76 C56.0400076,5.76 57.1133302,6.1066632 57.74,6.8 C58.3666698,7.4933368 58.68,8.573326 58.68,10.04 L58.68,10.48 C59.34667,9.4399948 59.9733304,8.3600056 60.56,7.24 C61.1466696,6.1199944 61.6666644,4.7333416 62.12,3.08 C62.3333344,2.0666616 62.6999974,1.393335 63.22,1.06 C63.7400026,0.726665 64.399996,0.6666656 65.2,0.88 C65.9733372,1.0400008 66.4799988,1.4266636 66.72,2.04 C66.9600012,2.6533364 66.946668,3.3866624 66.68,4.24 C66.546666,4.6133352 66.413334,5.0399976 66.28,5.52 L72.8,5.52 C73.733338,5.52 74.5199968,5.6599986 75.16,5.94 C75.8000032,6.2200014 76.319998,6.6066642 76.72,7.1 C77.120002,7.5933358 77.419999,8.1799966 77.62,8.86 C77.820001,9.5400034 77.9466664,10.279996 78,11.08 C78.0533336,12.5200072 78.0666668,14.0933248 78.04,15.8 C78.0133332,17.5066752 77.9733336,19.1999916 77.92,20.88 C77.8666664,22.5600084 77.7866672,24.1399926 77.68,25.62 C77.5733328,27.1000074 77.4666672,28.3333284 77.36,29.32 C77.1466656,31.2400096 76.8533352,32.8199938 76.48,34.06 C76.1066648,35.3000062 75.6133364,36.2733298 75,36.98 C74.3866636,37.6866702 73.6400044,38.173332 72.76,38.44 C71.8799956,38.706668 70.840006,38.8133336 69.64,38.76 C68.839996,38.7066664 67.906672,38.5733344 66.84,38.36 C65.773328,38.1466656 64.5866732,37.7866692 63.28,37.28 C62.1599944,36.8533312 61.4600014,36.3666694 61.18,35.82 C60.8999986,35.2733306 60.9333316,34.5733376 61.28,33.72 C61.5733348,32.9733296 62.0133304,32.5133342 62.6,32.34 C63.1866696,32.1666658 63.9866616,32.2933312 65,32.72 C66.3600068,33.2800028 67.4933288,33.6466658 68.4,33.82 C69.3066712,33.9933342 70.0466638,33.8866686 70.62,33.5 C71.1933362,33.1133314 71.6399984,32.4133384 71.96,31.4 C72.2800016,30.3866616 72.5466656,28.9733424 72.76,27.16 C72.9466676,25.6399924 73.073333,23.613346 73.14,21.08 C73.206667,18.546654 73.24,15.3733524 73.24,11.56 C73.24,11.0799976 73.106668,10.7333344 72.84,10.52 C72.573332,10.3066656 72.10667,10.2 71.44,10.2 L64.36,10.2 C63.9333312,11.0266708 63.4466694,11.839996 62.9,12.64 C62.3533306,13.440004 61.813336,14.239996 61.28,15.04 Z M54.08,11.76 C54.08,11.2799976 53.9866676,10.9466676 53.8,10.76 C53.6133324,10.5733324 53.2000032,10.48 52.56,10.48 L47.96,10.48 C47.559998,10.48 47.3000006,10.5999988 47.18,10.84 C47.0599994,11.0800012 47,11.4266644 47,11.88 L47,18.8 L54.08,18.8 L54.08,11.76 Z M70.32,24.96 C70.853336,26.026672 71.0066678,26.8399972 70.78,27.4 C70.5533322,27.9600028 70.1200032,28.3999984 69.48,28.72 C68.6533292,29.1466688 67.9600028,29.1866684 67.4,28.84 C66.8399972,28.4933316 66.3466688,27.8000052 65.92,26.76 C65.3333304,25.3199928 64.7200032,24.0066726 64.08,22.82 C63.4399968,21.6333274 62.7333372,20.4000064 61.96,19.12 C61.5333312,18.4266632 61.3599996,17.7400034 61.44,17.06 C61.5200004,16.3799966 61.826664,15.8666684 62.36,15.52 C63.0533368,15.0933312 63.6933304,14.9399994 64.28,15.06 C64.8666696,15.1800006 65.4133308,15.6933288 65.92,16.6 C66.6400036,17.9600068 67.3733296,19.3333264 68.12,20.72 C68.8666704,22.1066736 69.5999964,23.5199928 70.32,24.96 Z M54.08,23.48 L47,23.48 L47,30.4 C47,30.933336 47.1066656,31.299999 47.32,31.5 C47.5333344,31.700001 47.906664,31.8 48.44,31.8 L52.96,31.8 C53.493336,31.8 53.8133328,31.7066676 53.92,31.52 C54.0266672,31.3333324 54.08,31.0133356 54.08,30.56 L54.08,23.48 Z" id="我的" fill="#00263E"></path>
            <path d="M14.8,42.704 C15.0720014,42.704 15.2559995,42.7679994 15.352,42.896 C15.4480005,43.0240006 15.496,43.191999 15.496,43.4 C15.496,43.6400012 15.4480005,43.8179994 15.352,43.934 C15.2559995,44.0500006 15.0720014,44.108 14.8,44.108 L14.236,44.108 L14.236,46.7 L15.04,46.7 C15.3120014,46.7 15.4959995,46.7659993 15.592,46.898 C15.6880005,47.0300007 15.736,47.2039989 15.736,47.42 C15.736,47.6440011 15.6880005,47.8179994 15.592,47.942 C15.4959995,48.0660006 15.3120014,48.128 15.04,48.128 L8.788,48.128 C8.51599864,48.128 8.33200048,48.0660006 8.236,47.942 C8.13999952,47.8179994 8.092,47.6440011 8.092,47.42 C8.092,47.2039989 8.13999952,47.0300007 8.236,46.898 C8.33200048,46.7659993 8.51599864,46.7 8.788,46.7 L9.688,46.7 L9.688,44.108 L9.184,44.108 C8.9039986,44.108 8.72000044,44.0500006 8.632,43.934 C8.54399956,43.8179994 8.5,43.6400012 8.5,43.4 C8.5,43.191999 8.54399956,43.0240006 8.632,42.896 C8.72000044,42.7679994 8.9039986,42.704 9.184,42.704 L9.688,42.704 L9.688,41.396 C9.688,41.1399987 9.74999938,40.9600005 9.874,40.856 C9.99800062,40.7519995 10.159999,40.7 10.36,40.7 C10.560001,40.7 10.7219994,40.7479995 10.846,40.844 C10.9700006,40.9400005 11.032,41.1239986 11.032,41.396 L11.032,42.704 L12.916,42.704 L12.916,41.336 C12.916,41.0799987 12.9739994,40.9000005 13.09,40.796 C13.2060006,40.6919995 13.3719989,40.64 13.588,40.64 C13.8120011,40.64 13.9759995,40.6879995 14.08,40.784 C14.1840005,40.8800005 14.236,41.0639986 14.236,41.336 L14.236,42.704 L14.8,42.704 Z M7.144,43.34 C7.20800032,43.1959993 7.26199978,43.0520007 7.306,42.908 C7.35000022,42.7639993 7.3919998,42.6240007 7.432,42.488 C7.49600032,42.2239987 7.58199946,42.0420005 7.69,41.942 C7.79800054,41.8419995 7.94799904,41.8199997 8.14,41.876 C8.37200116,41.9400003 8.50399984,42.0619991 8.536,42.242 C8.56800016,42.4220009 8.54000044,42.6639985 8.452,42.968 C8.37999964,43.1840011 8.30600038,43.3859991 8.23,43.574 C8.15399962,43.7620009 8.06400052,43.955999 7.96,44.156 C7.85599948,44.356001 7.73800066,44.5699989 7.606,44.798 C7.47399934,45.0260011 7.31200096,45.2839986 7.12,45.572 C7.11199996,45.6440004 7.108,45.7139997 7.108,45.782 L7.108,45.992 C7.09199992,46.2800014 7.07600008,46.5559987 7.06,46.82 C7.04399992,47.0840013 7.02000016,47.3399988 6.988,47.588 C7.10000056,47.780001 7.20199954,47.9599992 7.294,48.128 C7.38600046,48.2960008 7.47399958,48.4599992 7.558,48.62 C7.64200042,48.7800008 7.72599958,48.9459991 7.81,49.118 C7.89400042,49.2900009 7.98399952,49.479999 8.08,49.688 C8.19200056,49.9200012 8.2380001,50.1439989 8.218,50.36 C8.1979999,50.5760011 8.088001,50.7399994 7.888,50.852 C7.71999916,50.9400004 7.57200064,50.9660002 7.444,50.93 C7.31599936,50.8939998 7.20400048,50.7440013 7.108,50.48 C7.01199952,50.2319988 6.93000034,50.0200009 6.862,49.844 C6.79399966,49.6679991 6.72400036,49.5040008 6.652,49.352 C6.39599872,50.1920042 6.02000248,50.9519966 5.524,51.632 C5.29199884,51.9360015 5.10400072,52.1019999 4.96,52.13 C4.81599928,52.1580001 4.6640008,52.1120006 4.504,51.992 C4.303999,51.8319992 4.20799996,51.656001 4.216,51.464 C4.22400004,51.271999 4.35599872,51.0240015 4.612,50.72 C4.9720018,50.2559977 5.26599886,49.6480038 5.494,48.896 C5.72200114,48.1439962 5.8559998,47.3240044 5.896,46.436 C5.90400004,46.243999 5.91199996,45.9580019 5.92,45.578 C5.92800004,45.1979981 5.93399998,44.7740023 5.938,44.306 C5.94200002,43.8379977 5.944,43.3500025 5.944,42.842 L5.944,41.384 C5.944,41.1279987 5.99199952,40.9360006 6.088,40.808 C6.18400048,40.6799994 6.33999892,40.616 6.556,40.616 C6.78000112,40.616 6.93399958,40.6679995 7.018,40.772 C7.10200042,40.8760005 7.144,41.0759985 7.144,41.372 L7.144,43.34 Z M15.328,52.112 C15.119999,52.2160005 14.9240009,52.2440002 14.74,52.196 C14.5559991,52.1479998 14.3760009,51.9600016 14.2,51.632 C13.999999,51.2479981 13.796001,50.9020015 13.588,50.594 C13.379999,50.2859985 13.1600012,49.9920014 12.928,49.712 C12.735999,49.503999 12.6200002,49.3100009 12.58,49.13 C12.5399998,48.9499991 12.623999,48.7520011 12.832,48.536 C13.0160009,48.3759992 13.211999,48.3139998 13.42,48.35 C13.628001,48.3860002 13.831999,48.5279988 14.032,48.776 C14.1840008,48.968001 14.3199994,49.1439992 14.44,49.304 C14.5600006,49.4640008 14.6739995,49.6239992 14.782,49.784 C14.8900005,49.9440008 14.9999994,50.1159991 15.112,50.3 C15.2240006,50.4840009 15.3479993,50.6959988 15.484,50.936 L15.484,50.924 C15.676001,51.2360016 15.7500002,51.4819991 15.706,51.662 C15.6619998,51.8420009 15.5480009,51.9879994 15.364,52.1 L15.328,52.112 Z M10.564,48.416 C10.8280013,48.5200005 10.9719999,48.675999 10.996,48.884 C11.0200001,49.092001 10.9680006,49.3239987 10.84,49.58 C10.7119994,49.8840015 10.550001,50.1959984 10.354,50.516 C10.157999,50.8360016 9.89600164,51.2199978 9.568,51.668 C9.43199932,51.8440009 9.31000054,51.9759996 9.202,52.064 C9.09399946,52.1520004 8.99200048,52.2059999 8.896,52.226 C8.79999952,52.2460001 8.70800044,52.2380002 8.62,52.202 C8.53199956,52.1659998 8.44000048,52.1120004 8.344,52.04 L8.368,52.052 C8.15999896,51.9159993 8.05400002,51.7560009 8.05,51.572 C8.04599998,51.3879991 8.17599868,51.1320016 8.44,50.804 C8.94400252,50.1799969 9.30399892,49.6000027 9.52,49.064 C9.66400072,48.7199983 9.81199924,48.5040004 9.964,48.416 C10.1160008,48.3279996 10.3119988,48.3279996 10.552,48.416 L10.564,48.416 Z M11.032,46.7 L12.916,46.7 L12.916,44.108 L11.032,44.108 L11.032,46.7 Z M5.296,42.872 C5.35200028,43.1760015 5.40399976,43.4639986 5.452,43.736 C5.50000024,44.0080014 5.5439998,44.2759987 5.584,44.54 C5.6240002,44.8040013 5.65999984,45.0719986 5.692,45.344 C5.72400016,45.6160014 5.75199988,45.8999985 5.776,46.196 C5.80800016,46.5320017 5.77800046,46.7579994 5.686,46.874 C5.59399954,46.9900006 5.46400084,47.0599999 5.296,47.084 C5.07999892,47.1160002 4.93000042,47.0580007 4.846,46.91 C4.76199958,46.7619993 4.70800012,46.5360015 4.684,46.232 C4.66799992,45.9599986 4.64800012,45.7040012 4.624,45.464 C4.59999988,45.2239988 4.57000018,44.9820012 4.534,44.738 C4.49799982,44.4939988 4.45600024,44.2440013 4.408,43.988 C4.35999976,43.7319987 4.30000036,43.4480016 4.228,43.136 C4.16399968,42.8719987 4.15599976,42.6620008 4.204,42.506 C4.25200024,42.3499992 4.37999896,42.2440003 4.588,42.188 C4.7480008,42.1479998 4.88999938,42.1719996 5.014,42.26 C5.13800062,42.3480004 5.23199968,42.5519984 5.296,42.872 Z M45.052,45.2 C45.2760011,45.2 45.4499994,45.2559994 45.574,45.368 C45.6980006,45.4800006 45.76,45.6439989 45.76,45.86 C45.76,46.0840011 45.6940007,46.2479995 45.562,46.352 C45.4299993,46.4560005 45.260001,46.508 45.052,46.508 L38.668,46.508 C38.2119977,46.508 37.984,46.2920022 37.984,45.86 C37.984,45.6439989 38.0379995,45.4800006 38.146,45.368 C38.2540005,45.2559994 38.4279988,45.2 38.668,45.2 L39.736,45.2 C39.6479996,44.9599988 39.5640004,44.7460009 39.484,44.558 C39.4039996,44.3699991 39.3000006,44.1320014 39.172,43.844 C39.0839996,43.651999 39.0459999,43.4840007 39.058,43.34 C39.0700001,43.1959993 39.1279995,43.0840004 39.232,43.004 L38.992,43.004 C38.7599988,43.004 38.5860006,42.9660004 38.47,42.89 C38.3539994,42.8139996 38.296,42.6640011 38.296,42.44 C38.296,42.2159989 38.3479995,42.0500005 38.452,41.942 C38.5560005,41.8339995 38.7359987,41.78 38.992,41.78 L40.804,41.78 C40.6839994,41.5479988 40.6339999,41.3500008 40.654,41.186 C40.6740001,41.0219992 40.787999,40.8640008 40.996,40.712 C41.204001,40.5759993 41.3979991,40.5219999 41.578,40.55 C41.7580009,40.5780001 41.9359991,40.7399985 42.112,41.036 C42.1600002,41.1240004 42.2079998,41.2359993 42.256,41.372 C42.3040002,41.5080007 42.3599997,41.6439993 42.424,41.78 L44.776,41.78 C45.2480024,41.78 45.484,41.9959978 45.484,42.428 C45.484,42.6680012 45.4220006,42.8239996 45.298,42.896 C45.1739994,42.9680004 45.0000011,43.004 44.776,43.004 L44.32,43.004 C44.4080004,43.0760004 44.4599999,43.1939992 44.476,43.358 C44.4920001,43.5220008 44.4560004,43.7119989 44.368,43.928 C44.3039997,44.120001 44.2280004,44.3259989 44.14,44.546 C44.0519996,44.7660011 43.9400007,44.9839989 43.804,45.2 L45.052,45.2 Z M44.98,50.504 C44.98,50.7760014 44.9640002,50.9959992 44.932,51.164 C44.8999998,51.3320008 44.8360005,51.4639995 44.74,51.56 C44.6439995,51.6560005 44.5100009,51.7199998 44.338,51.752 C44.1659991,51.7840002 43.9400014,51.8 43.66,51.8 L40.036,51.8 C39.7719987,51.8 39.5560008,51.7860001 39.388,51.758 C39.2199992,51.7299999 39.0860005,51.6700005 38.986,51.578 C38.8859995,51.4859995 38.8180002,51.3560008 38.782,51.188 C38.7459998,51.0199992 38.728,50.7920014 38.728,50.504 L38.728,48.596 C38.728,48.3159986 38.7459998,48.0920008 38.782,47.924 C38.8180002,47.7559992 38.8839995,47.6280004 38.98,47.54 C39.0760005,47.4519996 39.2079992,47.3940001 39.376,47.366 C39.5440008,47.3379999 39.7639986,47.324 40.036,47.324 L43.66,47.324 C43.9480014,47.324 44.1779991,47.3399998 44.35,47.372 C44.5220009,47.4040002 44.6559995,47.4679995 44.752,47.564 C44.8480005,47.6600005 44.9099999,47.7899992 44.938,47.954 C44.9660001,48.1180008 44.98,48.3319987 44.98,48.596 L44.98,50.504 Z M34.852,44.912 C34.5719986,44.912 34.3900004,44.8540006 34.306,44.738 C34.2219996,44.6219994 34.18,44.4480012 34.18,44.216 C34.18,43.9919989 34.2219996,43.8140007 34.306,43.682 C34.3900004,43.5499993 34.5719986,43.484 34.852,43.484 L35.656,43.484 L35.656,41.336 C35.656,41.0559986 35.7139994,40.8720004 35.83,40.784 C35.9460006,40.6959996 36.1199988,40.652 36.352,40.652 C36.560001,40.652 36.7339993,40.6959996 36.874,40.784 C37.0140007,40.8720004 37.084,41.0559986 37.084,41.336 L37.084,43.484 L37.66,43.484 C37.9240013,43.484 38.1039995,43.5499993 38.2,43.682 C38.2960005,43.8140007 38.344,43.9919989 38.344,44.216 C38.344,44.4480012 38.2960005,44.6219994 38.2,44.738 C38.1039995,44.8540006 37.9240013,44.912 37.66,44.912 L37.084,44.912 L37.084,48.632 C37.1160002,48.6079999 37.1479998,48.5820001 37.18,48.554 C37.2120002,48.5259999 37.2479998,48.4960002 37.288,48.464 C37.5040011,48.2879991 37.6919992,48.1880001 37.852,48.164 C38.0120008,48.1399999 38.187999,48.2519988 38.38,48.5 C38.5160007,48.6840009 38.5720001,48.8699991 38.548,49.058 C38.5239999,49.2460009 38.4000011,49.4239992 38.176,49.592 C37.6559974,49.9760019 37.1760022,50.2919988 36.736,50.54 C36.2959978,50.7880012 35.8440023,51.0279988 35.38,51.26 C35.1079986,51.3960007 34.8780009,51.4500001 34.69,51.422 C34.5019991,51.3939999 34.3520006,51.2360014 34.24,50.948 C34.1519996,50.6999988 34.1599995,50.5020007 34.264,50.354 C34.3680005,50.2059993 34.5319989,50.0800005 34.756,49.976 L34.744,49.988 C34.9200009,49.9079996 35.0819993,49.8320004 35.23,49.76 C35.3780007,49.6879996 35.5199993,49.6200003 35.656,49.556 L35.656,44.912 L34.852,44.912 Z M43.564,48.836 C43.564,48.7719997 43.5460002,48.7240002 43.51,48.692 C43.4739998,48.6599998 43.4320002,48.644 43.384,48.644 L40.312,48.644 C40.2639998,48.644 40.2220002,48.6619998 40.186,48.698 C40.1499998,48.7340002 40.132,48.7799997 40.132,48.836 L40.132,50.336 C40.132,50.3520001 40.1479998,50.3759998 40.18,50.408 C40.2120002,50.4400002 40.2439998,50.456 40.276,50.456 L43.432,50.456 C43.4640002,50.456 43.4939999,50.4400002 43.522,50.408 C43.5500001,50.3759998 43.564,50.3440002 43.564,50.312 L43.564,48.836 Z M40.924,44.6 C40.9640002,44.7040005 40.9919999,44.8099995 41.008,44.918 C41.0240001,45.0260005 41.0240001,45.1199996 41.008,45.2 L42.424,45.2 C42.4400001,45.1359997 42.4639998,45.0520005 42.496,44.948 C42.5280002,44.8439995 42.5759997,44.7360006 42.64,44.624 C42.6800002,44.5519996 42.7239998,44.4680005 42.772,44.372 C42.8200002,44.2759995 42.8679998,44.1760005 42.916,44.072 C42.9640002,43.9679995 43.0119998,43.8620005 43.06,43.754 C43.1080002,43.6459995 43.1479998,43.5440005 43.18,43.448 C43.2200002,43.3599996 43.2559998,43.2780004 43.288,43.202 C43.3200002,43.1259996 43.3559998,43.0600003 43.396,43.004 L40.132,43.004 C40.1800002,43.0600003 40.2279998,43.1239996 40.276,43.196 C40.3240002,43.2680004 40.3679998,43.3439996 40.408,43.424 C40.5200006,43.6560012 40.6199996,43.873999 40.708,44.078 C40.7960004,44.282001 40.8679997,44.4559993 40.924,44.6 Z M72.064,41.492 C71.9839996,41.8200016 71.8880006,42.1719981 71.776,42.548 L73.144,42.548 C73.0799997,42.4119993 73.0120004,42.2760007 72.94,42.14 C72.8679996,42.0039993 72.7880004,41.8680007 72.7,41.732 C72.5559993,41.523999 72.4899999,41.3500007 72.502,41.21 C72.5140001,41.0699993 72.615999,40.9200008 72.808,40.76 C72.9600008,40.6319994 73.1139992,40.5879998 73.27,40.628 C73.4260008,40.6680002 73.5719993,40.7959989 73.708,41.012 C73.8600008,41.2440012 73.9959994,41.4739989 74.116,41.702 C74.2360006,41.9300011 74.3439995,42.147999 74.44,42.356 C74.4560001,42.3960002 74.468,42.4299999 74.476,42.458 C74.484,42.4860001 74.492,42.5159998 74.5,42.548 L75.1,42.548 C75.3240011,42.548 75.4859995,42.5979995 75.586,42.698 C75.6860005,42.7980005 75.736,42.9679988 75.736,43.208 C75.736,43.4480012 75.6860005,43.6039996 75.586,43.676 C75.4859995,43.7480004 75.3240011,43.784 75.1,43.784 L74.044,43.784 L74.044,45.068 L74.896,45.068 C75.1120011,45.068 75.2699995,45.1139995 75.37,45.206 C75.4700005,45.2980005 75.52,45.4639988 75.52,45.704 C75.52,45.9440012 75.4700005,46.1079996 75.37,46.196 C75.2699995,46.2840004 75.1120011,46.328 74.896,46.328 L74.044,46.328 L74.044,47.612 L74.872,47.612 C75.1040012,47.612 75.2659995,47.6599995 75.358,47.756 C75.4500005,47.8520005 75.496,48.0199988 75.496,48.26 C75.496,48.5000012 75.4500005,48.6619996 75.358,48.746 C75.2659995,48.8300004 75.1040012,48.872 74.872,48.872 L74.044,48.872 L74.044,50.252 L75.184,50.252 C75.392001,50.252 75.5499995,50.2999995 75.658,50.396 C75.7660005,50.4920005 75.82,50.6559988 75.82,50.888 C75.82,51.1200012 75.7700005,51.2819995 75.67,51.374 C75.5699995,51.4660005 75.4080011,51.512 75.184,51.512 L71.5,51.512 C71.5,51.7440012 71.4420006,51.9159994 71.326,52.028 C71.2099994,52.1400006 71.0600009,52.196 70.876,52.196 C70.6919991,52.196 70.5400006,52.1400006 70.42,52.028 C70.2999994,51.9159994 70.24,51.7440012 70.24,51.512 L70.24,45.908 C70.1199994,45.9880004 70.0000006,46.0379999 69.88,46.058 C69.7599994,46.0780001 69.6520005,46.0600003 69.556,46.004 C69.4359994,45.9319996 69.3540002,45.8540004 69.31,45.77 C69.2659998,45.6859996 69.2499999,45.5960005 69.262,45.5 C69.2740001,45.4039995 69.3039998,45.3020005 69.352,45.194 C69.4000002,45.0859995 69.4599996,44.9720006 69.532,44.852 C69.6680007,44.5959987 69.8039993,44.3180015 69.94,44.018 C70.0760007,43.7179985 70.2039994,43.4100016 70.324,43.094 C70.4440006,42.7779984 70.5519995,42.4560016 70.648,42.128 C70.7440005,41.7999984 70.8239997,41.4800016 70.888,41.168 C70.9520003,40.8879986 71.0419994,40.7060004 71.158,40.622 C71.2740006,40.5379996 71.4519988,40.5279997 71.692,40.592 C71.8760009,40.6400002 71.9979997,40.7499991 72.058,40.922 C72.1180003,41.0940009 72.1200003,41.283999 72.064,41.492 Z M69.592,48.212 C69.7760009,48.212 69.9099996,48.2499996 69.994,48.326 C70.0780004,48.4020004 70.12,48.539999 70.12,48.74 C70.12,48.932001 70.0780004,49.0819995 69.994,49.19 C69.9099996,49.2980005 69.7760009,49.352 69.592,49.352 L68.092,49.352 C68.3480013,49.5760011 68.5859989,49.785999 68.806,49.982 C69.0260011,50.178001 69.239999,50.3879989 69.448,50.612 C69.6720011,50.8520012 69.8019998,51.0499992 69.838,51.206 C69.8740002,51.3620008 69.8240007,51.5079993 69.688,51.644 C69.487999,51.852001 69.3200007,51.9300003 69.184,51.878 C69.0479993,51.8259997 68.9040008,51.7240008 68.752,51.572 C68.5039988,51.2839986 68.2560012,51.0040014 68.008,50.732 C67.7599988,50.4599986 67.4680017,50.1680016 67.132,49.856 C66.8919988,50.3600025 66.6120016,50.807998 66.292,51.2 C65.9719984,51.592002 65.608002,51.8799991 65.2,52.064 C64.991999,52.1520004 64.7960009,52.1880001 64.612,52.172 C64.4279991,52.1559999 64.3040003,52.0320012 64.24,51.8 C64.2159999,51.7279996 64.204,51.6520004 64.204,51.572 C64.204,51.4919996 64.2199998,51.4120004 64.252,51.332 C64.2840002,51.2519996 64.3339997,51.1760004 64.402,51.104 C64.4700003,51.0319996 64.5639994,50.9720002 64.684,50.924 C65.0360018,50.731999 65.3259989,50.5060013 65.554,50.246 C65.7820011,49.9859987 65.9679993,49.6880017 66.112,49.352 L64.888,49.352 C64.695999,49.352 64.5500005,49.2980005 64.45,49.19 C64.3499995,49.0819995 64.3,48.932001 64.3,48.74 C64.3,48.3879982 64.4919981,48.212 64.876,48.212 L66.46,48.212 C66.46,48.1799998 66.4679999,48.1240004 66.484,48.044 C66.484,47.8919992 66.5279996,47.7600006 66.616,47.648 L65.584,47.744 C65.2399983,47.7920002 64.9900008,47.7740004 64.834,47.69 C64.6779992,47.6059996 64.6,47.4760009 64.6,47.3 C64.6,47.1639993 64.6279997,47.0220007 64.684,46.874 C64.7400003,46.7259993 64.9039986,46.5720008 65.176,46.412 C65.2880006,46.3479997 65.3939995,46.2860003 65.494,46.226 C65.5940005,46.1659997 65.6919995,46.1040003 65.788,46.04 L65.248,46.076 C65.039999,46.0920001 64.8600008,46.0680003 64.708,46.004 C64.5559992,45.9399997 64.48,45.804001 64.48,45.596 C64.48,45.3399987 64.6199986,45.116001 64.9,44.924 C65.100001,44.7799993 65.2699993,44.6560005 65.41,44.552 C65.5500007,44.4479995 65.6699995,44.3560004 65.77,44.276 C65.8700005,44.1959996 65.9619996,44.1200004 66.046,44.048 C66.1300004,43.9759996 66.2159996,43.9000004 66.304,43.82 C66.4640008,43.6679992 66.6159993,43.5780001 66.76,43.55 C66.9040007,43.5219999 67.0279995,43.5639994 67.132,43.676 C67.2520006,43.8120007 67.3000001,43.9339995 67.276,44.042 C67.2519999,44.1500005 67.1640008,44.2639994 67.012,44.384 C66.9159995,44.4640004 66.8120006,44.5479996 66.7,44.636 C66.5879994,44.7240004 66.4400009,44.8359993 66.256,44.972 C66.1439994,45.0600004 66.092,45.1179999 66.1,45.146 C66.108,45.1740001 66.1759994,45.188 66.304,45.188 L66.634,45.188 C66.7660007,45.188 66.8879994,45.184 67,45.176 C67.1520008,45.0559994 67.3019993,44.9340006 67.45,44.81 C67.5980007,44.6859994 67.7519992,44.5560007 67.912,44.42 C68.104001,44.2599992 68.2899991,44.1600002 68.47,44.12 C68.6500009,44.0799998 68.7999994,44.1399992 68.92,44.3 C69.0160005,44.4360007 69.0360003,44.5679994 68.98,44.696 C68.9239997,44.8240006 68.800001,44.9719992 68.608,45.14 C68.4959994,45.2280004 68.3840006,45.3179995 68.272,45.41 C68.1599994,45.5020005 68.0340007,45.6019995 67.894,45.71 C67.7539993,45.8180005 67.5960009,45.9359994 67.42,46.064 C67.2439991,46.1920006 67.0360012,46.3319992 66.796,46.484 C66.7239996,46.5320002 66.7039998,46.5799998 66.736,46.628 C66.7680002,46.6760002 66.8639992,46.6840002 67.024,46.652 L68.356,46.532 C68.3399999,46.5079999 68.3260001,46.4840001 68.314,46.46 C68.3019999,46.4359999 68.2880001,46.4160001 68.272,46.4 C68.1279993,46.191999 68.056,46.0340005 68.056,45.926 C68.056,45.8179995 68.1279993,45.7040006 68.272,45.584 C68.5520014,45.3439988 68.8199987,45.3919983 69.076,45.728 C69.2600009,46.0000014 69.4139994,46.2299991 69.538,46.418 C69.6620006,46.6060009 69.7719995,46.7879991 69.868,46.964 C69.9880006,47.1800011 70.0340001,47.3539993 70.006,47.486 C69.9779999,47.6180007 69.8920007,47.7399994 69.748,47.852 C69.6279994,47.9160003 69.5000007,47.9300002 69.364,47.894 C69.2279993,47.8579998 69.1120005,47.744001 69.016,47.552 C68.9999999,47.5359999 68.9860001,47.5160001 68.974,47.492 C68.9619999,47.4679999 68.9480001,47.4440001 68.932,47.42 L67.564,47.54 C67.6040002,47.5960003 67.6299999,47.6799994 67.642,47.792 C67.6540001,47.9040006 67.656,48.0279993 67.648,48.164 C67.648,48.1800001 67.646,48.19 67.642,48.194 C67.638,48.198 67.636,48.204 67.636,48.212 L69.592,48.212 Z M65.896,44.072 C65.7119991,44.2000006 65.5700005,44.2300003 65.47,44.162 C65.3699995,44.0939997 65.2880003,43.9800008 65.224,43.82 C65.1599997,43.6679992 65.0840004,43.5260007 64.996,43.394 C64.9079996,43.2619993 64.8200004,43.1280007 64.732,42.992 C64.6119994,42.8159991 64.5460001,42.6840004 64.534,42.596 C64.5219999,42.5079996 64.5559996,42.4200004 64.636,42.332 C64.5719997,42.2919998 64.5280001,42.2420003 64.504,42.182 C64.4799999,42.1219997 64.464,42.0440005 64.456,41.948 C64.4399999,41.7079988 64.4779995,41.5420005 64.57,41.45 C64.6620005,41.3579995 64.8679984,41.3040001 65.188,41.288 C65.4360012,41.28 65.7439982,41.2580002 66.112,41.222 C66.4800018,41.1859998 66.8519981,41.1400003 67.228,41.084 C67.6040019,41.0279997 67.9579983,40.9680003 68.29,40.904 C68.6220017,40.8399997 68.8719992,40.7760003 69.04,40.712 C69.3440015,40.6239996 69.5579994,40.6059997 69.682,40.658 C69.8060006,40.7100003 69.8919998,40.831999 69.94,41.024 C69.9720002,41.1520006 69.9720002,41.2659995 69.94,41.366 C69.9079998,41.4660005 69.8240007,41.5559996 69.688,41.636 C69.8080006,41.6760002 69.8919998,41.7559994 69.94,41.876 C69.9880002,41.9960006 69.9680004,42.1919986 69.88,42.464 C69.8079996,42.656001 69.7180005,42.851999 69.61,43.052 C69.5019995,43.252001 69.4040004,43.4359992 69.316,43.604 C69.2039994,43.812001 69.0980005,43.9519996 68.998,44.024 C68.8979995,44.0960004 68.7640008,44.0760006 68.596,43.964 C68.4359992,43.8679995 68.3380002,43.7660005 68.302,43.658 C68.2659998,43.5499995 68.3039994,43.3840011 68.416,43.16 C68.4560002,43.0799996 68.5039997,42.9800006 68.56,42.86 C68.6160003,42.7399994 68.6699997,42.6220006 68.722,42.506 C68.7740003,42.3899994 68.8219998,42.2880004 68.866,42.2 L68.944,42.044 C68.952,41.9879997 68.9759998,41.9280003 69.016,41.864 C68.823999,41.9040002 68.5900014,41.9499997 68.314,42.002 C68.0379986,42.0540003 67.7480015,42.0999998 67.444,42.14 C67.5160004,42.2520006 67.5859997,42.3679994 67.654,42.488 C67.7220003,42.6080006 67.7879997,42.7279994 67.852,42.848 C67.9640006,43.0960012 68.0060001,43.2819994 67.978,43.406 C67.9499999,43.5300006 67.8680007,43.6439995 67.732,43.748 L67.72,43.748 C67.4719988,43.8760006 67.2600009,43.7880015 67.084,43.484 C67.0279997,43.3799995 66.9700003,43.2700006 66.91,43.154 C66.8499997,43.0379994 66.7760004,42.9120007 66.688,42.776 C66.5439993,42.575999 66.472,42.4080007 66.472,42.272 C66.2879991,42.2960001 66.1160008,42.3159999 65.956,42.332 C65.7959992,42.3480001 65.6480007,42.3639999 65.512,42.38 C65.712001,42.6280012 65.8759994,42.9119984 66.004,43.232 C66.0840004,43.440001 66.122,43.6019994 66.118,43.718 C66.114,43.8340006 66.0400007,43.9519994 65.896,44.072 Z M71.5,50.252 L72.772,50.252 L72.772,48.872 L71.5,48.872 L71.5,50.252 Z M71.5,47.612 L72.772,47.612 L72.772,46.328 L71.5,46.328 L71.5,47.612 Z M71.5,45.068 L72.772,45.068 L72.772,43.784 L71.5,43.784 L71.5,45.068 Z" id="烘培雞" fill="#8D2929"></path>
        </g>
    </g>
</svg>